<?xml version="1.0" encoding="UTF-8" standalone="no"?><!DOCTYPE svg PUBLIC "-//W3C//DTD SVG 1.1//EN" "http://www.w3.org/Graphics/SVG/1.1/DTD/svg11.dtd"><svg width="100%" height="100%" viewBox="0 0 567 567" version="1.1" xmlns="http://www.w3.org/2000/svg" xmlns:xlink="http://www.w3.org/1999/xlink" xml:space="preserve" xmlns:serif="http://www.serif.com/" style="fill-rule:evenodd;clip-rule:evenodd;stroke-linejoin:round;stroke-miterlimit:2;"><g id="logo_tt_white_transparent.png"><path d="M290.529,566.929l-13.287,0c-0.261,-0.066 -0.328,-0.488 -0.59,-0.554c-0.312,-0.079 -41.315,2.042 -89.769,-19.393c-77.582,-34.322 -108.849,-100.923 -113.579,-110.335c-43.931,-87.419 -34.02,-204.07 50.394,-278.235c12.259,-10.77 15.572,-13.992 19.372,-10.128c2.64,2.685 15.538,31.032 15.68,31.378c3.888,9.418 -5.21,6.366 -28.47,35.791c-67.506,85.401 -43.126,203.517 28.828,262.32c106.306,86.875 236.039,39.932 288.399,-46.368c60.717,-100.074 11.626,-205.911 -39.247,-244.292c-2.687,-2.027 -3.668,-3.18 3.467,-17.446c9.483,-18.96 10.856,-27.65 19.251,-20.796c30.973,25.289 45.467,47.048 49.261,52.502c55.694,80.058 50.594,190.479 -8.989,270.778c-73.6,99.189 -178.559,93.994 -180.134,94.221c-0.267,0.039 -0.32,0.518 -0.587,0.556Z" style="fill:#fff;fill-opacity:1;"/><path d="M335.107,250.289c-11.636,11.031 -17.02,8.588 -17.724,24.584c-1.456,33.069 -1.101,156.195 1.026,162.158c3.806,10.67 24.913,15.116 19.582,25.457c-1.168,2.266 -1.529,3.02 -22.002,3.716c-19.873,0.676 -81.824,0.927 -84.575,-1.573c-0.937,-0.852 -3.468,-6.052 1.028,-11.439c5.718,-6.851 16.379,-7.045 17.435,-19.991c2.207,-27.055 2.441,-161.626 -0.429,-167.124c-5.487,-10.513 -23.106,-14.339 -20.097,-24.888c1.559,-5.465 3.387,-5.747 35.156,-6.192c16.157,-0.226 66.63,-0.029 69.689,1.824c3.032,1.836 3.573,5.369 3.657,5.919c0.429,2.807 -2.389,7.015 -2.746,7.549Z" style="fill:#fff;fill-opacity:1;"/><path d="M255.096,0l1.107,0c-0.107,1.075 0.158,1.089 -0.3,2.048c-13.45,28.102 -7.782,39.795 0.919,61.872c12.245,31.069 -8.556,29.943 -9.598,54.831c-1.641,39.176 40.376,52.576 48.066,22.099c3.38,-13.394 -2.037,-25.726 -2.112,-25.956c-2.401,-7.369 18.689,24.256 28.085,12.51c15.481,-19.353 -9.338,-29.279 -20.519,-56.358c-1.235,-2.99 -9.025,-21.857 12.701,-38.389c19.647,-14.95 18.612,-23.238 20.209,-29.636c0.522,-2.09 4.598,1.78 7.246,4.467c24.648,25.003 12.137,33.845 -0.272,47.292c-16.766,18.17 -4.515,24.936 12.913,45.243c26.112,30.426 -11.895,59.935 -48.584,68.159c-70.432,15.787 -104.813,-45.457 -99.766,-94.831c5.723,-55.983 45.267,-70.284 49.906,-73.35Z" style="fill:#fff;fill-opacity:1;"/><path d="M360.57,212.127c-10.505,12.981 -17.114,12.81 -37.935,13.284c-7.921,0.18 -90.157,2.052 -99.042,-0.542c-23.929,-6.986 -24.748,-34.365 -22.071,-36.751c4.257,-3.793 51.665,-2.302 107.83,-2.678c41.761,-0.279 47.927,0.768 52.033,1.465c3.69,0.627 6.42,1.096 4.511,12.141c-1.123,6.496 -4.718,12.127 -5.326,13.08Z" style="fill:#fff;fill-opacity:1;"/></g></svg>